<?xml version="1.0" encoding="UTF-8" standalone="no" ?>
<!DOCTYPE svg PUBLIC "-//W3C//DTD SVG 1.1//EN" "http://www.w3.org/Graphics/SVG/1.1/DTD/svg11.dtd">
<svg xmlns="http://www.w3.org/2000/svg" xmlns:xlink="http://www.w3.org/1999/xlink" version="1.1" width="350" height="350" viewBox="0 0 350 350" xml:space="preserve">
<desc>Created with Fabric.js 1.7.22</desc>
<defs>
</defs>
<g id="icon" style="stroke: none; stroke-width: 1; stroke-dasharray: none; stroke-linecap: butt; stroke-linejoin: miter; stroke-miterlimit: 10; fill: none; fill-rule: nonzero; opacity: 1;" transform="translate(-1.9444444444444287 -1.9444444444444287) scale(3.89 3.89)" >
	<path d="M 89.503 71.61 c -3.165 -1.844 -6.353 -2.735 -9.54 -2.688 c -2.563 -2.888 -6.27 -5.361 -10.745 -7.297 c 0.507 -2.168 0.938 -4.258 1.301 -6.277 c 0.013 -0.039 0.014 -0.077 0.022 -0.117 c 0.695 -3.888 1.126 -7.501 1.287 -10.83 c 0.047 -0.146 0.051 -0.297 0.029 -0.447 c 0.495 -11.884 -2.459 -20.133 -8.845 -24.614 l -0.574 -0.403 l -0.574 0.403 c -2.637 1.85 -4.676 4.356 -6.143 7.48 c -1.074 -1.335 -2.315 -2.503 -3.708 -3.48 l -0.574 -0.403 l -0.574 0.403 c -7.915 5.554 -10.562 16.899 -7.905 33.701 c -14.086 0.405 -26.782 4.964 -32.922 11.882 c -3.187 -0.047 -6.375 0.844 -9.54 2.688 c -0.477 0.278 -0.639 0.891 -0.361 1.367 c 0.279 0.479 0.891 0.639 1.368 0.361 c 5.582 -3.252 11.01 -3.252 16.593 0 c 3.087 1.798 6.195 2.697 9.304 2.697 c 3.108 0 6.217 -0.899 9.303 -2.697 c 5.582 -3.251 11.01 -3.253 16.593 0 c 6.173 3.595 12.434 3.597 18.606 0 c 5.584 -3.252 11.01 -3.252 16.594 0 c 0.477 0.276 1.09 0.116 1.367 -0.361 C 90.142 72.501 89.98 71.889 89.503 71.61 z M 56.907 58.033 c -1.057 -5.068 -1.677 -9.664 -1.876 -13.797 l 13.444 11.185 c -0.324 1.754 -0.702 3.567 -1.135 5.439 C 64.153 59.644 60.639 58.688 56.907 58.033 z M 68.868 53.146 L 54.962 41.577 c -0.009 -3.347 0.285 -6.36 0.898 -9.017 l 13.981 11.963 C 69.7 47.197 69.364 50.084 68.868 53.146 z M 62.438 21.399 c 5.084 3.921 7.576 10.809 7.48 20.556 L 56.445 30.427 C 57.679 26.555 59.671 23.533 62.438 21.399 z M 51.438 25.399 c 1.301 1.002 2.433 2.209 3.392 3.583 c -0.144 0.405 -0.271 0.828 -0.398 1.251 c -0.095 0.159 -0.149 0.33 -0.149 0.508 c -0.903 3.22 -1.35 6.927 -1.319 11.139 c -0.015 0.105 -0.02 0.207 -0.002 0.311 c 0.059 4.59 0.684 9.774 1.842 15.51 C 51.643 57.25 48.357 57 45 57 c -0.008 0 -0.017 0 -0.025 0 C 42.443 41.297 44.609 30.666 51.438 25.399 z M 70.897 71.61 c -5.585 3.253 -11.012 3.252 -16.595 0 c -6.171 -3.595 -12.431 -3.596 -18.606 0 c -5.583 3.255 -11.011 3.251 -16.593 0 c -2.171 -1.264 -4.353 -2.074 -6.538 -2.449 C 19.002 62.942 31.427 59 45 59 c 13.572 0 25.998 3.942 32.434 10.161 C 75.249 69.536 73.068 70.346 70.897 71.61 z" style="stroke: none; stroke-width: 1; stroke-dasharray: none; stroke-linecap: butt; stroke-linejoin: miter; stroke-miterlimit: 10; fill: rgb(0,0,0); fill-rule: nonzero; opacity: 1;" transform=" matrix(1 0 0 1 0 0) " stroke-linecap="round" />
	<path d="M 18.73 30.654 c -0.186 0 -0.373 -0.026 -0.556 -0.08 c -0.616 -0.181 -1.107 -0.651 -1.314 -1.259 l -0.936 -2.738 l -2.857 0.302 c -0.633 0.061 -1.27 -0.187 -1.69 -0.672 c -0.42 -0.485 -0.58 -1.146 -0.425 -1.77 l 0.694 -2.81 l -2.566 -1.291 c -0.572 -0.292 -0.967 -0.845 -1.059 -1.48 s 0.132 -1.278 0.599 -1.718 l 2.103 -1.989 l -1.461 -2.473 c -0.323 -0.554 -0.357 -1.233 -0.091 -1.817 c 0.267 -0.584 0.802 -1.003 1.432 -1.123 L 13.447 9.2 l 0.107 -2.871 c 0.028 -0.641 0.367 -1.23 0.906 -1.578 c 0.54 -0.346 1.218 -0.411 1.813 -0.169 l 2.682 1.087 l 1.643 -2.357 c 0.37 -0.524 0.974 -0.837 1.615 -0.837 c 0.642 0 1.246 0.313 1.616 0.838 l 1.669 2.364 l 2.656 -1.095 c 0.595 -0.242 1.272 -0.177 1.813 0.169 c 0.54 0.347 0.878 0.937 0.906 1.578 l 0.125 2.892 l 2.826 0.515 c 0.631 0.12 1.167 0.539 1.433 1.123 c 0.266 0.583 0.232 1.263 -0.091 1.817 l -1.458 2.5 l 2.099 1.961 c 0.466 0.44 0.69 1.083 0.599 1.718 s -0.487 1.188 -1.059 1.48 l -2.578 1.315 l 0.705 2.785 c 0.154 0.623 -0.005 1.285 -0.425 1.77 c -0.42 0.484 -1.051 0.735 -1.691 0.672 l -2.88 -0.287 l -0.912 2.724 c -0.207 0.607 -0.699 1.078 -1.314 1.259 c -0.615 0.181 -1.284 0.051 -1.786 -0.349 L 22.2 28.428 l -2.24 1.798 C 19.607 30.506 19.171 30.654 18.73 30.654 z M 15.949 24.591 c 0.841 0 1.592 0.529 1.868 1.339 l 0.936 2.738 l 2.232 -1.809 c 0.724 -0.573 1.734 -0.573 2.458 0 l 2.268 1.798 l 0.9 -2.729 c 0.298 -0.874 1.148 -1.424 2.067 -1.329 l 2.88 0.287 l -0.718 -2.782 c -0.222 -0.896 0.198 -1.816 1.021 -2.236 l 2.578 -1.315 l -2.108 -1.953 c -0.672 -0.635 -0.815 -1.636 -0.349 -2.434 l 1.457 -2.5 l -2.829 -0.503 c -0.908 -0.171 -1.57 -0.935 -1.61 -1.858 l -0.125 -2.891 l -2.652 1.106 c -0.858 0.346 -1.826 0.062 -2.358 -0.693 l -1.656 -2.347 l -1.646 2.347 c -0.532 0.754 -1.501 1.039 -2.358 0.693 l -2.683 -1.087 l -0.095 2.872 c -0.041 0.923 -0.703 1.687 -1.61 1.858 l -2.844 0.536 l 1.473 2.468 c 0.465 0.798 0.321 1.798 -0.35 2.433 l -2.103 1.989 l 2.573 1.279 c 0.823 0.419 1.243 1.339 1.021 2.236 l -0.694 2.81 l 2.856 -0.315 C 15.816 24.594 15.883 24.591 15.949 24.591 z M 23.013 3.889 l -0.817 0.576 c 0 0 0 0 0 0.001 L 23.013 3.889 z" style="stroke: none; stroke-width: 1; stroke-dasharray: none; stroke-linecap: butt; stroke-linejoin: miter; stroke-miterlimit: 10; fill: rgb(0,0,0); fill-rule: nonzero; opacity: 1;" transform=" matrix(1 0 0 1 0 0) " stroke-linecap="round" />
	<path d="M 22.214 23.565 c -3.86 0 -7 -3.14 -7 -7 s 3.14 -7 7 -7 s 7 3.14 7 7 S 26.074 23.565 22.214 23.565 z M 22.214 11.565 c -2.757 0 -5 2.243 -5 5 s 2.243 5 5 5 s 5 -2.243 5 -5 S 24.971 11.565 22.214 11.565 z" style="stroke: none; stroke-width: 1; stroke-dasharray: none; stroke-linecap: butt; stroke-linejoin: miter; stroke-miterlimit: 10; fill: rgb(0,0,0); fill-rule: nonzero; opacity: 1;" transform=" matrix(1 0 0 1 0 0) " stroke-linecap="round" />
	<path d="M 27.4 86.036 c -3.109 0 -6.217 -0.899 -9.304 -2.697 c -5.583 -3.253 -11.012 -3.251 -16.593 0 c -0.477 0.276 -1.089 0.117 -1.368 -0.361 c -0.278 -0.477 -0.116 -1.089 0.361 -1.367 c 6.175 -3.596 12.434 -3.596 18.607 0 c 5.583 3.251 11.01 3.255 16.593 0 c 6.175 -3.596 12.435 -3.596 18.606 0 c 5.583 3.252 11.01 3.254 16.595 0 c 6.172 -3.596 12.434 -3.596 18.605 0 c 0.478 0.278 0.639 0.891 0.361 1.367 c -0.277 0.478 -0.891 0.638 -1.367 0.361 c -5.584 -3.252 -11.01 -3.252 -16.594 0 c -6.173 3.598 -12.434 3.596 -18.606 0 c -5.583 -3.253 -11.011 -3.251 -16.593 0 C 33.617 85.137 30.508 86.036 27.4 86.036 z" style="stroke: none; stroke-width: 1; stroke-dasharray: none; stroke-linecap: butt; stroke-linejoin: miter; stroke-miterlimit: 10; fill: rgb(0,0,0); fill-rule: nonzero; opacity: 1;" transform=" matrix(1 0 0 1 0 0) " stroke-linecap="round" />
</g>
</svg>